# xmcd
#
# Track frame offsets:
#	150
#	2693
#	24114
#	40503
#	46255
#	66805
#	83516
#	107736
#	115765
#	139147
#	157242
#	173231
#	183624
#	202853
#	243631
#
# Disc length: 3648 seconds
#
# Revision: 2
# Processed by: cddbd v1.5.2PL0 Copyright (c) Steve Scherf et al.
# Submitted via: audiograbber 1.83.01
#
DISCID=ba0e3e0f
DTITLE=OddJobs and Typical Cats and Heiruspecs - Live! At The Bryant-Lake Bowl
DYEAR=2002
DGENRE=Hip-Hop
TTITLE0=Intro (We Ain't Goin' Nowhere)
TTITLE1=Absorbing Playtime
TTITLE2=Reinventing The Wheel
TTITLE3=Denizen Kane Spoken Word
TTITLE4=Time Flies
TTITLE5=Nomi Spoken Word
TTITLE6=Sleep Walk
TTITLE7=Proof 101
TTITLE8=Oscillations At 40hz
TTITLE9=Any Day
TTITLE10=Twenty Cents To The Corner Store
TTITLE11=Brick Walls (A Capella)
TTITLE12=Gospel
TTITLE13=Freestyle Session
TTITLE14=Room Mic Goes Out
EXTD=www.RapMusicGuide.com
EXTT0=
EXTT1=
EXTT2=
EXTT3=
EXTT4=
EXTT5=
EXTT6=
EXTT7=
EXTT8=
EXTT9=
EXTT10=
EXTT11=
EXTT12=
EXTT13=
EXTT14=
PLAYORDER=
